<svg xmlns="http://www.w3.org/2000/svg" viewBox="0 0 128 128"><path d="M56.48 128a3.2 3.2 0 0 1 0-6.39 60.04 60.04 0 0 0 60.05-60.04A55.2 55.2 0 0 0 61.35 6.39a49.87 49.87 0 0 0-49.88 49.87 44.57 44.57 0 0 0 44.57 44.57A39.26 39.26 0 0 0 95.3 61.57 33.95 33.95 0 0 0 61.35 27.6 28.65 28.65 0 0 0 32.7 56.26 23.34 23.34 0 0 0 56.04 79.6c9.96 0 18.03-8.07 18.03-18.03 0-7.03-5.7-12.73-12.72-12.73a7.4 7.4 0 0 0-7.43 7.42c0 1.17.95 2.11 2.12 2.11a3.2 3.2 0 0 1 0 6.4 8.5 8.5 0 0 1-8.5-8.5 13.8 13.8 0 0 1 13.8-13.82 19.1 19.1 0 0 1 19.12 19.12 24.4 24.4 0 0 1-24.42 24.42A29.73 29.73 0 0 1 26.3 56.26a35.03 35.03 0 0 1 35.04-35.03 40.34 40.34 0 0 1 40.34 40.34 45.65 45.65 0 0 1-45.65 45.65A50.95 50.95 0 0 1 5.08 56.26 56.26 56.26 0 0 1 61.35 0c34 0 61.56 27.57 61.56 61.57A66.43 66.43 0 0 1 56.48 128Z"/></svg>