<svg xmlns="http://www.w3.org/2000/svg" xml:space="preserve" fill-rule="evenodd" stroke-linejoin="round" stroke-miterlimit="2" clip-rule="evenodd" viewBox="0 0 513 512"><g transform="matrix(2.1 0 0 1.468 221.5 157.2)"><path fill="none" d="M-105.4-107.1h243.8v348.8h-243.8z"/><clipPath id="a"><path d="M-105.4-107.1h243.8v348.8h-243.8z"/></clipPath><g clip-path="url(#a)"><circle cx="916.2" cy="256" r="256" fill="#fff" transform="matrix(.4762 0 0 .6812 -419.8 -107)"/><path d="M16.5-24c67.3 0 122 91.3 122 91.3s-54.7 91.3-122 91.3-121.9-91.3-121.9-91.3 54.6-91.2 122-91.2ZM-31 66.3a4.6 4.6 0 0 0 0 .7v.4c0 37.6 21.3 68.1 47.6 68.1a32.2 32.2 0 0 0 .7 0c15.6 0 29.4-11 37.8-28a88.8 88.8 0 0 0 9.1-40C64.1 29.6 42.8-.9 16.5-.9c-26 0-47.2 30-47.6 67Zm4.6.7c.2-33.8 19.4-61 43-61 4.4 0 8.6.9 12.5 2.6-3-1-6.2-1.5-9.5-1.5C-3.4 7-22 33.5-22 66.3c0 30.9 17.6 56 39.2 56 20.4 0 37-23.6 37-52.7 0-27.3-15.5-49.4-34.7-49.4-17.8 0-32.3 20.6-32.3 46 0 23.7 13.5 42.9 30 42.9 15.3 0 27.7-17.7 27.7-39.5 0-20-11.3-36.3-25.4-36.3-12.7 0-23 14.8-23 33 0 16.4 9.3 29.6 20.7 29.6 10.2 0 18.5-11.8 18.5-26.3 0-12.8-7.2-23-16.2-23-7.6 0-13.8 8.8-13.8 19.7 0 9 5.2 16.5 11.5 16.5 5.1 0 9.3-6 9.3-13.2 0-5.5-3.1-10-7-10l-.9.2-.9.4-.7.6-.7.8-.6 1-.4 1.1L15 65v1.3c0 1.8 1 3.3 2.2 3.3 1.3 0 2.3-1.5 2.4-3.3 1.2 0 2.2 1.5 2.2 3.3 0 3.6-2 6.5-4.6 6.5-3.8 0-6.9-4.4-6.9-9.8 0-7.3 4.2-13.2 9.2-13.2 6.4 0 11.6 7.4 11.6 16.5 0 10.9-6.2 19.7-13.9 19.7-8.9 0-16.1-10.3-16.1-23C1.1 51.7 9.4 40 19.5 40 31 40 40.3 53.2 40.3 69.6c0 18.1-10.3 32.9-23 32.9-14 0-25.4-16.2-25.4-36.2 0-21.8 12.4-39.5 27.6-39.5 16.6 0 30 19.2 30 42.8 0 25.4-14.4 46-32.3 46-19 0-34.6-22-34.6-49.3 0-29.1 16.6-52.7 37-52.7 21.6 0 39.1 25 39.1 56 0 12.6-2.7 24.4-7.5 34-7.8 15.2-20.2 25-34.3 25.2-23.9-.3-43.2-27.8-43.4-62Z"/></g></g></svg>