<svg xmlns="http://www.w3.org/2000/svg" viewBox="0 0 733 134"><path fill="none" d="M0 0h732.24v133.98H0z"/><clipPath id="a"><path d="M0 0h732.24v133.98H0z"/></clipPath><g fill="#000" clip-path="url(#a)"><g><path d="M311.12 20.71h20.63l13.12 48 5.5 21.75h.5l5.25-21.75 13.13-48h20.5v91.13h-13.38v-74h-.5l-7.16 28-12.59 46h-11.25l-12.75-46L325 38.09h-.5l.12 29v44.75h-13.5zM403.12 45.71h13.25v66.13h-13.25zm0-25.87h13.25v15.62h-13.25zM429 45.71h12.87v11.88h.38q2.52-6.26 7.48-9.63a19.4 19.4 0 0 1 11.14-3.37q6.3 0 10.63 2.62 4.35 2.62 6.6 8.31 2.27 5.69 2.27 14.44v41.88h-13.12V72.45q0-8.88-2.75-12.75t-8.63-3.88q-4.13 0-7.25 2.32a14.3 14.3 0 0 0-4.75 6.5 27 27 0 0 0-1.62 9.8v37.38H429zM512.81 112.96q-6.9 0-11.9-3.75-5.02-3.75-7.72-11.44t-2.7-19.06q0-11 2.64-18.62 2.63-7.63 7.65-11.63 5.01-4 12.03-4 6.66 0 11.35 3.37a19 19 0 0 1 6.84 9.38V19.83h13.5v92h-13v-11.5h-.5q-2.14 6-6.84 9.32-4.7 3.3-11.35 3.3Zm4.81-10.87q4.13 0 7.25-2.44a15 15 0 0 0 4.75-6.94q1.63-4.5 1.63-10.5v-6.75q0-6-1.63-10.56a16.3 16.3 0 0 0-4.62-7.13q-3-2.56-7.25-2.56-4.5 0-7.63 2.62t-4.62 7.88-1.5 13q0 11.62 3.37 17.5t10.25 5.88M583.12 20.71h34q8.75 0 14.75 2.75t9.13 8.25 3.12 13.88q0 8.5-3.81 14.06T629 67.34v.5q7.12 1.24 10.25 5.74t3.12 12.63v15.63q0 3 .25 5.43.25 2.44 1 4.57h-13.87a18 18 0 0 1-.94-4.13q-.32-2.5-.32-5.87V88.7q0-4.75-1.18-7.75-1.2-3-3.88-4.37-2.7-1.38-7.31-1.38l-19.13-.16V63.71h18.13q7.62 0 11.25-4.19t3.62-11.69q0-5.25-1.75-8.62a11 11 0 0 0-5.12-5q-3.38-1.62-8.25-1.63h-17.88v79.25h-13.87zM655.62 45.71h13.25v66.13h-13.25zm0-25.87h13.25v15.62h-13.25zM706.75 134.46q-8 0-13.63-2.25a20 20 0 0 1-8.81-6.5q-3.2-4.24-3.81-10.5H694q.87 4.75 4.12 7t9 2.25q6.75 0 9.75-3.69t3-11.44V98.08h-.25a19 19 0 0 1-7 9q-4.75 3.25-11.25 3.25-7.13 0-12.12-3.8-5-3.82-7.63-11.13T679 77.46q0-11 2.75-18.38t7.75-11 11.87-3.62q6.62 0 11.38 3.25a18.2 18.2 0 0 1 6.87 9.12h.38l.37-11.12h12.75v61.75q0 9.75-3 15.69t-8.81 8.62q-5.82 2.7-14.56 2.69ZM706 99.71q4.25 0 7.37-2.44a15.5 15.5 0 0 0 4.81-6.75 27 27 0 0 0 1.69-9.93v-6.5q0-5.63-1.69-9.94a15 15 0 0 0-4.75-6.7 11.6 11.6 0 0 0-7.31-2.37q-4.38 0-7.44 2.57-3.06 2.55-4.62 7.5-1.57 4.94-1.57 12.3 0 7.39 1.57 12.32 1.56 4.94 4.56 7.44t7.37 2.5Z"/></g><path d="M128.83.48c70.64 0 128.05 67 128.05 67s-57.41 66.98-128.05 66.98S.88 67.47.88 67.47 58.18.56 128.93.56zM78.97 66.74q-.03.25 0 .51v.3a49.96 49.96 0 0 0 50.7 49.96 48.4 48.4 0 0 0 39.67-20.54c6.42-9.13 9.69-19.18 9.55-29.35-.1-27.8-22.46-50.19-50.06-50.19A50.03 50.03 0 0 0 78.87 66.6zm4.83.51a45.13 45.13 0 0 1 45.13-44.75c4.62 0 9.03.65 13.12 1.9q-4.75-1.1-9.97-1.1a43.44 43.44 0 0 0-43.66 43.44 41.16 41.16 0 0 0 41.14 41.09c21.41 0 38.84-17.32 38.84-38.67a36.3 36.3 0 0 0-36.42-36.24 33.86 33.86 0 0 0-33.9 33.75 31.53 31.53 0 0 0 31.48 31.47 29.03 29.03 0 0 0 29.08-28.98 26.6 26.6 0 0 0-26.66-26.63 24.2 24.2 0 0 0-24.14 24.21 21.7 21.7 0 0 0 21.72 21.72c10.7 0 19.42-8.66 19.42-19.3 0-9.4-7.56-16.87-17-16.87a14.47 14.47 0 0 0-14.49 14.45c0 6.6 5.46 12.1 12.07 12.1 5.36 0 9.76-4.4 9.76-9.68a7.33 7.33 0 0 0-7.34-7.34l-.95.15-.94.3-.74.43-.73.6-.63.72-.42.81-.32.96v.95a2.4 2.4 0 0 0 2.31 2.42c1.37 0 2.42-1.1 2.52-2.42 1.26 0 2.3 1.1 2.3 2.42 0 2.64-2.09 4.77-4.82 4.77a7.23 7.23 0 0 1-7.24-7.2c0-5.35 4.4-9.68 9.66-9.68 6.71 0 12.17 5.43 12.17 12.11 0 8-6.5 14.45-14.59 14.45-9.34 0-16.9-7.55-16.9-16.87 0-10.71 8.71-19.3 19.31-19.3a21.74 21.74 0 0 1 21.84 21.72 24.2 24.2 0 0 1-24.14 24.14A26.63 26.63 0 0 1 103 66.74c0-16 13.01-28.98 28.96-28.98a31.44 31.44 0 0 1 31.5 31.4 33.8 33.8 0 0 1-33.91 33.75c-19.94 0-36.32-16.14-36.32-36.17 0-21.35 17.43-38.67 38.84-38.67a41.03 41.03 0 0 1 41.04 41.1c0 9.24-2.83 17.9-7.87 24.94a45 45 0 0 1-36 18.49 45.87 45.87 0 0 1-45.56-45.5z"/></g></svg>