
<svg xmlns="http://www.w3.org/2000/svg" viewBox="0 0 512 512">
  <path d="M256 0c141.29 0 256 114.71 256 256 0 141.291-114.71 256.001-256 256.001C114.71 512.001 0 397.291 0 256 0 114.71 114.71 0 256 0Zm0 23C127.404 23 23 127.404 23 256c0 128.597 104.404 233.001 233 233.001S489 384.597 489 256c0-128.596-104.404-233-233-233Z"/>
  <path fill-rule="nonzero" d="M213.001 168.527c-3.97 1.954-7.818 4.152-11.482 6.655-5.009 3.359-11.3 4.213-17.102 2.321l-43.793-14.533-23.148 40.056 34.509 30.714c4.52 4.03 6.902 9.892 6.535 15.937a96.936 96.936 0 0 0 0 13.311c.428 6.045-2.015 11.907-6.535 15.937l-34.509 30.652 23.148 40.117 43.793-14.532c5.741-1.893 12.032-1.038 17.102 2.32 3.664 2.443 7.512 4.702 11.482 6.656a19.554 19.554 0 0 1 10.506 13.617l9.284 45.185h46.296l9.284-45.185c1.222-5.923 5.131-10.93 10.505-13.617 3.97-1.954 7.818-4.152 11.483-6.656 5.008-3.358 11.299-4.213 17.102-2.32l43.792 14.532 23.149-40.117-34.509-30.652c-4.52-4.03-6.902-9.892-6.535-15.937.122-2.198.244-4.396.244-6.656 0-2.259-.061-4.457-.244-6.655-.428-6.045 2.015-11.907 6.535-15.937l34.509-30.653-23.149-40.117-43.792 14.533c-5.742 1.892-12.033 1.038-17.102-2.321-3.665-2.442-7.513-4.701-11.483-6.655a19.555 19.555 0 0 1-10.505-13.617l-9.284-45.185h-46.296l-9.284 45.185c-1.222 5.923-5.131 10.93-10.506 13.617Zm66.147-78.342c9.284 0 17.285 6.534 19.118 15.571l9.283 45.185a110.988 110.988 0 0 1 13.804 7.999l43.793-14.532c8.795-2.931 18.445.732 23.087 8.792l23.148 40.117a19.48 19.48 0 0 1-3.97 24.364l-34.386 30.652c.366 5.252.366 10.686 0 15.876l34.508 30.653c6.963 6.167 8.551 16.364 3.97 24.363l-23.148 40.117c-4.642 8.06-14.292 11.724-23.087 8.793l-43.793-14.533c-4.397 2.931-8.978 5.618-13.803 7.999l-9.284 45.185c-1.894 9.099-9.895 15.571-19.117 15.571h-46.297c-9.284 0-17.285-6.534-19.118-15.571l-9.283-45.185a111.06 111.06 0 0 1-13.804-7.999l-43.976 14.533c-8.795 2.931-18.445-.733-23.087-8.793l-23.148-40.056c-4.642-7.999-2.993-18.196 3.97-24.363l34.447-30.714a114.912 114.912 0 0 1 0-15.876l-34.508-30.652c-6.963-6.167-8.551-16.365-3.97-24.364l23.209-40.117c4.642-8.06 14.292-11.723 23.087-8.792l43.793 14.532c4.398-2.931 8.978-5.618 13.803-7.999l9.284-45.185c1.894-9.037 9.895-15.571 19.179-15.571h46.296Zm-57.351 166.086c0 18.807 15.208 34.011 34.02 34.011 18.812 0 34.02-15.204 34.02-34.011 0-18.807-15.208-34.011-34.02-34.011-18.812 0-34.02 15.204-34.02 34.011Zm33.837 53.734c-29.684-.122-53.688-24.241-53.565-53.917.122-29.676 24.247-53.673 53.931-53.55 29.684.122 53.687 24.241 53.565 53.916-.122 29.676-24.248 53.673-53.931 53.551Z"/>
</svg>