<svg xmlns="http://www.w3.org/2000/svg" viewBox="0 0 512 513">
  <ellipse cx="255.998" cy="256.271" fill="#fff" rx="256.005" ry="256"/>
  <path d="M256.01 122.115c141.33 0 256.2 134.028 256.2 134.028s-114.87 134.029-256.2 134.029C114.68 390.172.02 256.143.02 256.143s114.66-133.881 256.2-133.881l-.21-.147Zm-99.75 132.56a4.774 4.774 0 0 0 0 1.028v.587c0 55.197 44.73 99.971 99.96 99.971.49.004.98.004 1.47 0 32.76 0 61.74-16.148 79.38-41.104 12.838-18.262 19.383-38.373 19.11-58.72-.21-55.637-44.94-100.411-100.17-100.411-54.6 0-99.12 44.04-99.96 98.356l.21.293Z"/>
  <path fill-rule="nonzero" d="M236.989 179.743c.932-4.595 4.999-7.917 9.718-7.917h18.565c4.719 0 8.786 3.322 9.718 7.917l4.501 21.732a57.432 57.432 0 0 1 12.202 7.078l21.049-6.985a9.92 9.92 0 0 1 11.735 4.471l9.283 16.082a9.905 9.905 0 0 1-2.018 12.387l-16.547 14.716c.279 2.297.403 4.657.403 7.047 0 2.391-.155 4.75-.403 7.048l16.578 14.747c3.539 3.135 4.347 8.32 2.018 12.387l-9.283 16.082c-2.359 4.067-7.264 5.961-11.735 4.47l-21.049-6.985c-3.757 2.825-7.855 5.185-12.201 7.079l-4.471 21.701a9.932 9.932 0 0 1-9.718 7.917h-18.565c-4.719 0-8.786-3.322-9.718-7.917l-4.47-21.701c-4.378-1.863-8.445-4.254-12.201-7.079l-21.143 6.985a9.918 9.918 0 0 1-11.735-4.47l-9.283-16.082a9.906 9.906 0 0 1 2.018-12.387l16.579-14.747a58.367 58.367 0 0 1-.404-7.048c0-2.39.155-4.75.404-7.047l-16.579-14.747c-3.539-3.136-4.346-8.321-2.018-12.388l9.283-16.081a9.919 9.919 0 0 1 11.735-4.471l21.05 6.985c3.756-2.825 7.854-5.184 12.201-7.078l4.501-21.701Zm19.001 101.365c13.722-.062 24.805-11.208 24.743-24.93-.062-13.722-11.207-24.806-24.93-24.744-13.722.062-24.806 11.208-24.743 24.93.062 13.723 11.207 24.806 24.93 24.744Z"/>
</svg>
