<svg xmlns="http://www.w3.org/2000/svg" xml:space="preserve" style="fill-rule:evenodd;clip-rule:evenodd;stroke-linejoin:round;stroke-miterlimit:2" viewBox="0 0 512 513"><g transform="matrix(.82247 0 0 .90465 653.322 29.325)"><path d="M-794.339-32.279h622.514v565.965h-622.514z" style="fill:none"/><clipPath id="a"><path d="M-794.339-32.279h622.514v565.965h-622.514z"/></clipPath><g clip-path="url(#a)"><circle cx="916.2" cy="256" r="256" style="fill:#fff" transform="matrix(1.21587 0 0 1.1054 -1597.07 -32.116)"/><path d="M-483.07 102.57c171.836 0 311.5 148.155 311.5 148.155S-311.234 398.88-483.07 398.88s-311.245-148.155-311.245-148.155 139.41-147.993 311.5-147.993l-.255-.163Zm-121.28 146.532a4.696 4.696 0 0 0 0 1.136v.649c0 61.015 54.384 110.508 121.535 110.508.595.005 1.193.005 1.788 0 39.83 0 75.066-17.85 96.514-45.437 15.608-20.186 23.567-42.418 23.235-64.909-.256-61.501-54.64-110.994-121.792-110.994-66.385 0-120.515 48.681-121.536 108.722l.255.325Z"/><path d="M259.1 73.5c3-14.8 16.1-25.5 31.3-25.5h59.8c15.2 0 28.3 10.7 31.3 25.5l14.5 70c14.1 6 27.3 13.7 39.3 22.8l67.8-22.5c14.4-4.8 30.2 1.2 37.8 14.4l29.9 51.8c7.6 13.2 4.9 29.8-6.5 39.9L511 297.3c.9 7.4 1.3 15 1.3 22.7 0 7.7-.5 15.3-1.3 22.7l53.4 47.5c11.4 10.1 14 26.8 6.5 39.9L541 481.9c-7.6 13.1-23.4 19.2-37.8 14.4l-67.8-22.5c-12.1 9.1-25.3 16.7-39.3 22.8l-14.4 69.9c-3.1 14.9-16.2 25.5-31.3 25.5h-59.8c-15.2 0-28.3-10.7-31.3-25.5l-14.4-69.9c-14.1-6-27.2-13.7-39.3-22.8l-68.1 22.5c-14.4 4.8-30.2-1.2-37.8-14.4l-29.9-51.8c-7.6-13.2-4.9-29.8 6.5-39.9l53.4-47.5c-.9-7.4-1.3-15-1.3-22.7 0-7.7.5-15.3 1.3-22.7l-53.4-47.5c-11.4-10.1-14-26.8-6.5-39.9l29.9-51.8c7.6-13.2 23.4-19.2 37.8-14.4l67.8 22.5c12.1-9.1 25.3-16.7 39.3-22.8l14.5-69.9ZM320.3 400c44.2-.2 79.9-36.1 79.7-80.3-.2-44.2-36.1-79.9-80.3-79.7-44.2.2-79.9 36.1-79.7 80.3.2 44.2 36.1 79.9 80.3 79.7Z" style="fill-rule:nonzero" transform="matrix(.37747 0 0 .34318 -604 141.048)"/></g></g></svg>